<svg xmlns="http://www.w3.org/2000/svg" width="560" height="128" viewBox="0 0 560 128" role="img" aria-label="Scalar, Vector, Specific, and GPU compute backends">
  <defs>
    <linearGradient id="header-gradient" x1="0%" y1="0%" x2="100%" y2="0%">
      <stop offset="0%" stop-color="#155799"/>
      <stop offset="100%" stop-color="#159957"/>
    </linearGradient>
    <filter id="soft-shadow" x="-4%" y="-8%" width="108%" height="120%">
      <feDropShadow dx="0" dy="2" stdDeviation="3" flood-color="#155799" flood-opacity="0.12"/>
    </filter>
  </defs>

  <!-- Accent bar matching opensolvers.com page-header gradient -->
  <rect x="16" y="12" width="528" height="6" rx="3" fill="url(#header-gradient)"/>

  <!-- Scalar -->
  <g filter="url(#soft-shadow)">
    <rect x="16" y="32" width="120" height="72" rx="10" fill="#ffffff" stroke="#155799" stroke-width="1.5"/>
    <rect x="16" y="32" width="120" height="8" rx="10" fill="#155799"/>
    <rect x="16" y="36" width="120" height="4" fill="#155799"/>
    <text x="76" y="72" text-anchor="middle" font-family="'Open Sans', 'Helvetica Neue', Helvetica, Arial, sans-serif" font-size="17" font-weight="700" fill="#155799">Scalar</text>
    <text x="76" y="92" text-anchor="middle" font-family="'Open Sans', 'Helvetica Neue', Helvetica, Arial, sans-serif" font-size="12" font-weight="600" fill="#155799" opacity="0.85">RV64GC</text>
  </g>

  <!-- Vector -->
  <g filter="url(#soft-shadow)">
    <rect x="152" y="32" width="120" height="72" rx="10" fill="#ffffff" stroke="#1e6bb8" stroke-width="1.5"/>
    <rect x="152" y="32" width="120" height="8" rx="10" fill="#1e6bb8"/>
    <rect x="152" y="36" width="120" height="4" fill="#1e6bb8"/>
    <text x="212" y="78" text-anchor="middle" font-family="'Open Sans', 'Helvetica Neue', Helvetica, Arial, sans-serif" font-size="17" font-weight="700" fill="#1e6bb8">Vector</text>
  </g>

  <!-- Specific -->
  <g filter="url(#soft-shadow)">
    <rect x="288" y="32" width="120" height="72" rx="10" fill="#ffffff" stroke="#157878" stroke-width="1.5"/>
    <rect x="288" y="32" width="120" height="8" rx="10" fill="#157878"/>
    <rect x="288" y="36" width="120" height="4" fill="#157878"/>
    <text x="348" y="72" text-anchor="middle" font-family="'Open Sans', 'Helvetica Neue', Helvetica, Arial, sans-serif" font-size="17" font-weight="700" fill="#157878">Specific</text>
    <text x="348" y="92" text-anchor="middle" font-family="'Open Sans', 'Helvetica Neue', Helvetica, Arial, sans-serif" font-size="12" font-weight="600" fill="#157878" opacity="0.85">IME</text>
  </g>

  <!-- GPU -->
  <g filter="url(#soft-shadow)">
    <rect x="424" y="32" width="120" height="72" rx="10" fill="#ffffff" stroke="#159957" stroke-width="1.5"/>
    <rect x="424" y="32" width="120" height="8" rx="10" fill="#159957"/>
    <rect x="424" y="36" width="120" height="4" fill="#159957"/>
    <text x="484" y="78" text-anchor="middle" font-family="'Open Sans', 'Helvetica Neue', Helvetica, Arial, sans-serif" font-size="17" font-weight="700" fill="#159957">GPU</text>
  </g>
</svg>
